<svg class="icon" viewBox="0 0 1024 1024" xmlns="http://www.w3.org/2000/svg" width="200" height="200"><path d="M283.927 525.964a242.036 242.036 0 1 0 484.073 0 242.036 242.036 0 1 0-484.073 0z" fill="#FFB200"/><path d="M512 805.236c-160.582 0-293.236-130.327-293.236-293.236S351.418 218.764 512 218.764 805.236 351.418 805.236 512 672.582 805.236 512 805.236zm0-551.563c-141.964 0-258.327 116.363-258.327 258.327S370.036 770.327 512 770.327 770.327 653.964 770.327 512 653.964 253.673 512 253.673z"/><path d="M649.31 530.618H374.69c-9.308 0-18.617-6.982-18.617-18.618s6.982-18.618 18.618-18.618h274.618c9.31 0 18.618 6.982 18.618 18.618s-9.309 18.618-18.618 18.618z"/><path d="M512 667.927c-9.31 0-18.618-6.982-18.618-18.618V374.691c0-9.31 6.982-18.618 18.618-18.618s18.618 6.982 18.618 18.618v274.618c0 9.31-9.309 18.618-18.618 18.618z"/></svg>