<svg class="icon" width="200" height="200" viewBox="0 0 1024 1024" xmlns="http://www.w3.org/2000/svg"><path d="M172.373 390.827a339.627 339.627 0 1 0 679.254 0 339.627 339.627 0 1 0-679.254 0z" fill="#ffb200"/><path d="M512 989.867c-262.827 0-477.867-215.04-477.867-477.867S249.173 34.133 512 34.133 989.867 249.173 989.867 512 774.827 989.867 512 989.867zm0-904.534C276.48 85.333 85.333 276.48 85.333 512S276.48 938.667 512 938.667 938.667 747.52 938.667 512 747.52 85.333 512 85.333z"/><path d="M310.613 638.293c-6.826 0-13.653-1.706-18.773-6.826-10.24-10.24-10.24-25.6 0-35.84L493.227 394.24c10.24-10.24 25.6-10.24 35.84 0l201.386 201.387c10.24 10.24 10.24 25.6 0 35.84s-25.6 10.24-35.84 0L512 447.147 329.387 629.76c-5.12 5.12-11.947 8.533-18.774 8.533z"/></svg>