<svg class="icon" viewBox="0 0 1024 1024" xmlns="http://www.w3.org/2000/svg" width="300" height="300"><path d="M47.104 453.632q0-43.008 20.992-57.856t66.048-14.848q20.48 0 64.512.512t93.696.512 96.768.512 74.752.512q38.912 1.024 61.44-6.656t22.528-35.328q0-20.48 1.536-48.64t1.536-48.64q1.024-35.84 20.48-45.568t49.152 14.848q30.72 24.576 71.68 58.368t84.992 69.12 86.016 69.632 74.752 59.904q29.696 24.576 30.208 46.592t-28.16 45.568q-29.696 24.576-70.144 56.32t-83.968 65.536-85.504 67.072-74.752 58.88q-35.84 28.672-58.88 21.504t-22.016-44.032V733.184q0-15.36-.512-30.208t-.512-27.136q0-25.6-15.36-32.256t-41.984-6.656q-29.696 0-77.824-.512t-100.352-.512-101.376-.512-79.872-.512q-13.312 0-27.648-2.56t-26.112-9.728T54.272 601.6t-7.168-37.376q0-27.648-.512-53.248t.512-57.344z"/></svg>