<?xml version="1.0" standalone="no"?><!DOCTYPE svg PUBLIC "-//W3C//DTD SVG 1.1//EN" "http://www.w3.org/Graphics/SVG/1.1/DTD/svg11.dtd"><svg t="1682092767360" class="icon" viewBox="0 0 1024 1024" version="1.1" xmlns="http://www.w3.org/2000/svg" p-id="5831" xmlns:xlink="http://www.w3.org/1999/xlink" width="200" height="200"><path d="M525.963636 525.963636m-242.036363 0a242.036364 242.036364 0 1 0 484.072727 0 242.036364 242.036364 0 1 0-484.072727 0Z" fill="#FFB200" p-id="5832"></path><path d="M512 805.236364C351.418182 805.236364 218.763636 674.909091 218.763636 512S351.418182 218.763636 512 218.763636 805.236364 351.418182 805.236364 512 672.581818 805.236364 512 805.236364z m0-551.563637c-141.963636 0-258.327273 116.363636-258.327273 258.327273s116.363636 258.327273 258.327273 258.327273 258.327273-116.363636 258.327273-258.327273-116.363636-258.327273-258.327273-258.327273z" fill="" p-id="5833"></path><path d="M649.309091 530.618182H374.690909c-9.309091 0-18.618182-6.981818-18.618182-18.618182s6.981818-18.618182 18.618182-18.618182h274.618182c9.309091 0 18.618182 6.981818 18.618182 18.618182s-9.309091 18.618182-18.618182 18.618182z" fill="" p-id="5834"></path><path d="M512 667.927273c-9.309091 0-18.618182-6.981818-18.618182-18.618182V374.690909c0-9.309091 6.981818-18.618182 18.618182-18.618182s18.618182 6.981818 18.618182 18.618182v274.618182c0 9.309091-9.309091 18.618182-18.618182 18.618182z" fill="" p-id="5835"></path></svg>